<?xml version="1.0" encoding="utf-8"?>
<!-- Generator: Adobe Illustrator 16.0.0, SVG Export Plug-In . SVG Version: 6.00 Build 0)  -->
<!DOCTYPE svg PUBLIC "-//W3C//DTD SVG 1.1//EN" "http://www.w3.org/Graphics/SVG/1.1/DTD/svg11.dtd">
<svg version="1.1" xmlns="http://www.w3.org/2000/svg" xmlns:xlink="http://www.w3.org/1999/xlink" x="0px" y="0px"
	 width="94.353px" height="83.375px" viewBox="0 0 94.353 83.375" enable-background="new 0 0 94.353 83.375" xml:space="preserve">
<g id="Layer_5_copy_2">
</g>
<g id="Layer_5_copy_3">
</g>
<g id="Layer_10">
	<g>
		<g>
			<polygon fill="#F1F1F2" points="22.226,14.68 20.058,13.428 0,25.008 0,27.512 			"/>
		</g>
		<g>
			<polygon fill="#F1F1F2" points="47.174,31.18 69.402,18.346 67.234,17.094 47.174,28.678 27.113,17.094 24.944,18.346 			"/>
		</g>
		<g>
			<polygon fill="#F1F1F2" points="47.173,34.848 69.402,22.014 67.234,20.76 47.174,32.344 27.113,20.76 24.944,22.014 			"/>
		</g>
		<g>
			<polygon fill="#F1F1F2" points="69.402,3.68 67.234,2.428 47.174,14.01 27.113,2.428 24.944,3.68 47.174,16.514 			"/>
		</g>
		<g>
			<polygon fill="#F1F1F2" points="47.174,23.848 69.402,11.012 67.234,9.76 47.174,21.344 27.113,9.76 24.944,11.012 			"/>
		</g>
		<g>
			<polygon fill="#F1F1F2" points="47.174,27.514 69.402,14.68 67.234,13.428 47.174,25.01 27.113,13.428 24.944,14.68 			"/>
		</g>
		<g>
			<polygon fill="#F1F1F2" points="20.059,6.094 0,17.674 0,20.179 22.226,7.346 			"/>
		</g>
		<g>
			<polygon fill="#F1F1F2" points="22.226,11.012 20.058,9.76 0,21.343 0,23.846 			"/>
		</g>
		<g>
			<polygon fill="#F1F1F2" points="1.562,41.693 23.791,54.527 46.019,41.693 23.791,28.859 			"/>
		</g>
		<g>
			<polygon fill="#F1F1F2" points="47.174,38.514 69.402,25.68 67.234,24.428 47.173,36.01 27.113,24.428 24.944,25.68 			"/>
		</g>
		<g>
			<polygon fill="#F1F1F2" points="47.174,20.18 69.402,7.346 67.235,6.094 47.174,17.676 27.113,6.094 24.944,7.346 			"/>
		</g>
		<g>
			<polygon fill="#F1F1F2" points="91.028,62.441 70.968,74.025 50.907,62.441 48.738,63.695 70.966,76.529 93.196,63.695 			"/>
		</g>
		<g>
			<polygon fill="#F1F1F2" points="50.907,66.109 48.738,67.361 70.967,80.195 93.196,67.361 91.028,66.109 70.966,77.691 			"/>
		</g>
		<g>
			<polygon fill="#F1F1F2" points="70.967,28.859 48.738,41.693 70.967,54.527 93.196,41.693 			"/>
		</g>
		<g>
			<polygon fill="#F1F1F2" points="0,70.543 0,83.38 22.219,83.38 22.226,83.376 			"/>
		</g>
		<g>
			<polygon fill="#F1F1F2" points="91.028,58.775 70.967,70.359 50.907,58.775 48.738,60.027 70.968,72.861 93.196,60.027 			"/>
		</g>
		<g>
			<polygon fill="#F1F1F2" points="47.174,12.846 69.402,0.012 69.381,0 24.965,0 24.944,0.012 			"/>
		</g>
		<g>
			<polygon fill="#F1F1F2" points="91.028,55.109 70.967,66.691 50.907,55.109 48.738,56.361 70.967,69.195 93.196,56.361 			"/>
		</g>
		<g>
			<polygon fill="#F1F1F2" points="91.028,44.109 70.967,55.691 50.907,44.109 48.738,45.361 70.967,58.195 93.196,45.361 			"/>
		</g>
		<g>
			<polygon fill="#F1F1F2" points="91.028,47.775 70.967,59.357 50.907,47.775 48.738,49.027 70.968,61.861 93.196,49.027 			"/>
		</g>
		<g>
			<polygon fill="#F1F1F2" points="91.028,51.441 70.968,63.025 50.907,51.441 48.738,52.693 70.967,65.529 93.196,52.693 			"/>
		</g>
		<g>
			<polygon fill="#F1F1F2" points="94.35,12.846 94.35,0 72.141,0 72.12,0.012 			"/>
		</g>
		<g>
			<polygon fill="#F1F1F2" points="74.289,20.76 72.12,22.014 94.349,34.848 94.35,34.847 94.35,32.343 			"/>
		</g>
		<g>
			<polygon fill="#F1F1F2" points="74.289,13.428 72.12,14.68 94.35,27.514 94.35,25.01 			"/>
		</g>
		<g>
			<polygon fill="#F1F1F2" points="72.12,18.346 94.35,31.179 94.35,28.678 74.289,17.094 			"/>
		</g>
		<g>
			<polygon fill="#F1F1F2" points="94.349,36.01 74.289,24.428 72.12,25.68 94.35,38.514 94.35,36.009 			"/>
		</g>
		<g>
			<polygon fill="#F1F1F2" points="94.35,70.542 72.12,83.376 72.127,83.38 94.35,83.38 			"/>
		</g>
		<g>
			<polygon fill="#F1F1F2" points="22.226,18.346 20.058,17.094 0,28.676 0,31.179 			"/>
		</g>
		<g>
			<polygon fill="#F1F1F2" points="74.289,2.428 72.12,3.68 94.35,16.514 94.35,14.01 			"/>
		</g>
		<g>
			<polygon fill="#F1F1F2" points="47.174,70.542 24.944,83.376 24.951,83.38 69.395,83.38 69.402,83.376 			"/>
		</g>
		<g>
			<polygon fill="#F1F1F2" points="74.289,9.76 72.12,11.012 94.35,23.848 94.35,21.343 			"/>
		</g>
		<g>
			<polygon fill="#F1F1F2" points="72.12,7.346 94.35,20.179 94.35,17.676 74.289,6.094 			"/>
		</g>
		<g>
			<polygon fill="#F1F1F2" points="0,12.844 22.226,0.012 22.206,0 0,0 			"/>
		</g>
		<g>
			<polygon fill="#F1F1F2" points="43.852,58.775 23.791,70.359 3.73,58.775 1.562,60.027 23.792,72.861 46.019,60.027 			"/>
		</g>
		<g>
			<polygon fill="#F1F1F2" points="0,14.008 0,16.512 22.226,3.68 20.058,2.428 			"/>
		</g>
		<g>
			<polygon fill="#F1F1F2" points="3.73,66.109 1.562,67.361 23.791,80.195 46.019,67.361 43.852,66.109 23.79,77.691 			"/>
		</g>
		<g>
			<polygon fill="#F1F1F2" points="22.226,22.014 20.058,20.76 0,32.343 0,34.846 			"/>
		</g>
		<g>
			<polygon fill="#F1F1F2" points="22.226,25.68 20.058,24.428 0,36.008 0,38.512 			"/>
		</g>
		<g>
			<polygon fill="#F1F1F2" points="43.852,62.441 23.792,74.025 3.73,62.441 1.562,63.695 23.79,76.529 46.019,63.695 			"/>
		</g>
		<g>
			<polygon fill="#F1F1F2" points="43.852,47.775 23.791,59.357 3.73,47.775 1.562,49.027 23.792,61.861 46.019,49.027 			"/>
		</g>
		<g>
			<polygon fill="#F1F1F2" points="43.852,55.109 23.791,66.691 3.73,55.109 1.562,56.361 23.791,69.195 46.019,56.361 			"/>
		</g>
		<g>
			<polygon fill="#F1F1F2" points="43.852,44.109 23.791,55.691 3.73,44.109 1.562,45.361 23.791,58.195 46.019,45.361 			"/>
		</g>
		<g>
			<polygon fill="#F1F1F2" points="43.852,51.441 23.792,63.025 3.73,51.441 1.562,52.693 23.791,65.529 46.019,52.693 			"/>
		</g>
	</g>
</g>
</svg>
