<?xml version="1.0" encoding="utf-8"?>
<!-- Generator: Adobe Illustrator 16.0.0, SVG Export Plug-In . SVG Version: 6.00 Build 0)  -->
<!DOCTYPE svg PUBLIC "-//W3C//DTD SVG 1.1//EN" "http://www.w3.org/Graphics/SVG/1.1/DTD/svg11.dtd">
<svg version="1.1" id="Layer_5_copy_2" xmlns="http://www.w3.org/2000/svg" xmlns:xlink="http://www.w3.org/1999/xlink" x="0px"
	 y="0px" width="660.466px" height="250.105px" viewBox="0 0 660.466 250.105" enable-background="new 0 0 660.466 250.105"
	 xml:space="preserve">
<g>
	<g>
		<polygon fill="#F1F1F2" points="613.29,107.215 635.519,94.379 633.351,93.126 613.292,104.711 593.229,93.126 591.062,94.379 		
			"/>
	</g>
	<g>
		<polygon fill="#F1F1F2" points="613.29,110.881 635.519,98.046 633.351,96.794 613.29,108.377 593.229,96.794 591.062,98.046 		
			"/>
	</g>
	<g>
		<polygon fill="#F1F1F2" points="613.292,114.547 635.519,101.712 633.351,100.461 613.29,112.045 593.229,100.461 
			591.062,101.712 		"/>
	</g>
	<g>
		<polygon fill="#F1F1F2" points="660.466,110.881 660.469,110.879 660.469,108.375 660.466,108.377 640.405,96.794 638.237,98.046 
					"/>
	</g>
	<g>
		<polygon fill="#F1F1F2" points="613.29,121.881 635.519,109.047 633.351,107.795 613.29,119.377 593.229,107.795 591.062,109.047 
					"/>
	</g>
	<g>
		<polygon fill="#F1F1F2" points="589.497,69.199 611.726,56.365 609.558,55.113 589.497,66.695 569.437,55.113 567.267,56.365 		
			"/>
	</g>
	<g>
		<polygon fill="#F1F1F2" points="658.901,150.729 656.733,149.477 636.673,161.059 616.612,149.477 614.444,150.729 
			636.673,163.562 		"/>
	</g>
	<g>
		<polygon fill="#F1F1F2" points="660.466,121.881 660.469,121.879 660.469,119.375 660.466,119.377 640.405,107.795 
			638.237,109.047 		"/>
	</g>
	<g>
		<polygon fill="#F1F1F2" points="660.466,118.215 660.469,118.213 660.469,115.71 660.468,115.711 640.405,104.127 
			638.237,105.381 		"/>
	</g>
	<g>
		<polygon fill="#F1F1F2" points="613.292,103.547 635.519,90.712 633.353,89.46 613.29,101.042 593.229,89.46 591.062,90.712 		"/>
	</g>
	<g>
		<polygon fill="#F1F1F2" points="660.468,114.547 660.469,114.546 660.469,112.043 660.466,112.045 640.405,100.46 
			638.237,101.713 		"/>
	</g>
	<g>
		<polygon fill="#F1F1F2" points="636.673,137.894 658.901,125.06 636.673,112.228 614.444,125.06 		"/>
	</g>
	<g>
		<polygon fill="#F1F1F2" points="640.405,85.794 638.237,87.047 660.466,99.88 660.469,99.878 660.469,97.374 660.466,97.376 		"/>
	</g>
	<g>
		<polygon fill="#F1F1F2" points="635.519,87.046 633.351,85.794 613.29,97.377 593.229,85.794 591.062,87.046 613.29,99.881 		"/>
	</g>
	<g>
		<polygon fill="#F1F1F2" points="613.29,96.212 635.519,83.378 613.29,70.545 591.062,83.378 		"/>
	</g>
	<g>
		<polygon fill="#F1F1F2" points="613.29,38.518 635.519,25.684 633.351,24.431 613.29,36.014 593.229,24.431 591.062,25.684 		"/>
	</g>
	<g>
		<polygon fill="#F1F1F2" points="660.466,96.213 660.469,96.211 660.469,70.547 660.466,70.545 638.237,83.378 		"/>
	</g>
	<g>
		<polygon fill="#F1F1F2" points="636.673,55.695 616.612,44.113 614.444,45.365 636.673,58.199 658.901,45.365 656.733,44.113 		
			"/>
	</g>
	<g>
		<polygon fill="#F1F1F2" points="589.497,65.533 611.726,52.697 609.558,51.445 589.497,63.029 569.437,51.445 567.267,52.697 		
			"/>
	</g>
	<g>
		<polygon fill="#F1F1F2" points="611.726,45.365 609.558,44.113 589.497,55.695 569.437,44.113 567.267,45.365 589.497,58.199 		
			"/>
	</g>
	<g>
		<polygon fill="#F1F1F2" points="640.405,6.097 638.237,7.35 660.468,20.183 660.469,20.182 660.469,17.677 660.466,17.679 		"/>
	</g>
	<g>
		<polygon fill="#F1F1F2" points="660.466,23.851 660.469,23.85 660.469,21.347 660.468,21.347 640.405,9.763 638.237,11.016 		"/>
	</g>
	<g>
		<polygon fill="#F1F1F2" points="660.466,38.518 660.469,38.517 660.469,36.012 660.466,36.014 640.405,24.431 638.237,25.683 		
			"/>
	</g>
	<g>
		<polygon fill="#F1F1F2" points="660.469,201.577 660.469,199.074 660.468,199.075 640.405,187.491 638.237,188.745 
			660.466,201.579 		"/>
	</g>
	<g>
		<polygon fill="#F1F1F2" points="660.466,27.517 660.469,27.516 660.469,25.012 660.466,25.013 640.405,13.431 638.237,14.683 		
			"/>
	</g>
	<g>
		<polygon fill="#F1F1F2" points="660.466,34.852 660.469,34.85 660.469,32.347 660.468,32.347 640.405,20.763 638.237,22.017 		"/>
	</g>
	<g>
		<polygon fill="#F1F1F2" points="660.468,31.183 660.469,31.183 660.469,28.68 660.466,28.682 640.405,17.097 638.237,18.349 		"/>
	</g>
	<g>
		<polygon fill="#F1F1F2" points="613.29,118.215 635.519,105.381 633.351,104.127 613.292,115.711 593.229,104.127 
			591.062,105.381 		"/>
	</g>
	<g>
		<polygon fill="#F1F1F2" points="613.29,153.909 591.062,166.743 613.29,179.577 635.519,166.743 		"/>
	</g>
	<g>
		<polygon fill="#F1F1F2" points="658.901,49.031 656.735,47.779 636.673,59.361 616.612,47.779 614.444,49.031 636.675,61.865 		
			"/>
	</g>
	<g>
		<polygon fill="#F1F1F2" points="636.673,65.533 658.901,52.697 656.733,51.445 636.675,63.029 616.612,51.445 614.444,52.697 		
			"/>
	</g>
	<g>
		<polygon fill="#F1F1F2" points="636.673,69.199 658.901,56.365 656.733,55.113 636.673,66.695 616.612,55.113 614.444,56.365 		
			"/>
	</g>
	<g>
		<polygon fill="#F1F1F2" points="636.673,76.533 658.901,63.699 656.733,62.445 636.675,74.029 616.612,62.445 614.444,63.699 		
			"/>
	</g>
	<g>
		<polygon fill="#F1F1F2" points="636.675,72.865 658.901,60.031 656.733,58.779 636.673,70.363 616.612,58.779 614.444,60.031 		
			"/>
	</g>
	<g>
		<polygon fill="#F1F1F2" points="633.351,176.491 613.292,188.075 593.229,176.491 591.062,177.743 613.29,190.579 
			635.519,177.743 		"/>
	</g>
	<g>
		<polygon fill="#F1F1F2" points="633.351,180.159 613.29,191.741 593.229,180.159 591.062,181.411 613.29,194.245 635.519,181.411 
					"/>
	</g>
	<g>
		<polygon fill="#F1F1F2" points="593.229,187.491 591.062,188.745 613.29,201.579 635.519,188.745 633.351,187.491 
			613.292,199.075 		"/>
	</g>
	<g>
		<polygon fill="#F1F1F2" points="633.351,169.159 613.29,180.741 593.229,169.159 591.062,170.411 613.29,183.245 635.519,170.411 
					"/>
	</g>
	<g>
		<polygon fill="#F1F1F2" points="633.351,183.825 613.29,195.409 593.229,183.825 591.062,185.077 613.292,197.911 
			635.519,185.077 		"/>
	</g>
	<g>
		<polygon fill="#F1F1F2" points="636.673,80.2 658.901,67.365 656.733,66.113 636.673,77.696 616.612,66.113 614.444,67.365 		"/>
	</g>
	<g>
		<polygon fill="#F1F1F2" points="633.353,172.825 613.29,184.407 593.229,172.825 591.062,174.077 613.292,186.911 
			635.519,174.077 		"/>
	</g>
	<g>
		<polygon fill="#F1F1F2" points="640.405,89.46 638.237,90.713 660.468,103.546 660.469,103.545 660.469,101.041 660.466,101.043 
					"/>
	</g>
	<g>
		<polygon fill="#F1F1F2" points="636.675,156.229 658.901,143.394 656.733,142.142 636.673,153.727 616.612,142.142 
			614.444,143.394 		"/>
	</g>
	<g>
		<polygon fill="#F1F1F2" points="658.901,128.728 656.733,127.476 636.673,139.058 616.612,127.476 614.444,128.728 
			636.673,141.562 		"/>
	</g>
	<g>
		<polygon fill="#F1F1F2" points="636.673,148.896 658.901,136.06 656.733,134.808 636.675,146.393 616.612,134.808 614.444,136.06 
					"/>
	</g>
	<g>
		<polygon fill="#F1F1F2" points="636.673,152.562 658.901,139.728 656.733,138.476 636.673,150.059 616.612,138.476 
			614.444,139.728 		"/>
	</g>
	<g>
		<polygon fill="#F1F1F2" points="660.466,107.215 660.469,107.213 660.469,104.71 660.468,104.711 640.405,93.127 638.237,94.378 
					"/>
	</g>
	<g>
		<polygon fill="#F1F1F2" points="636.673,159.896 658.901,147.062 656.733,145.809 636.675,157.393 616.612,145.809 
			614.444,147.062 		"/>
	</g>
	<g>
		<polygon fill="#F1F1F2" points="660.466,191.741 640.405,180.159 638.237,181.411 660.466,194.245 660.469,194.243 
			660.469,191.739 		"/>
	</g>
	<g>
		<polygon fill="#F1F1F2" points="660.468,188.075 640.405,176.491 638.237,177.743 660.466,190.579 660.469,190.577 
			660.469,188.074 		"/>
	</g>
	<g>
		<polygon fill="#F1F1F2" points="640.405,183.825 638.237,185.077 660.468,197.911 660.469,197.91 660.469,195.407 
			660.466,195.409 		"/>
	</g>
	<g>
		<polygon fill="#F1F1F2" points="660.466,184.407 640.405,172.825 638.237,174.077 660.468,186.911 660.469,186.91 
			660.469,184.405 		"/>
	</g>
	<g>
		<polygon fill="#F1F1F2" points="660.466,153.909 638.237,166.743 660.466,179.577 660.469,179.575 660.469,153.911 		"/>
	</g>
	<g>
		<polygon fill="#F1F1F2" points="636.675,145.228 658.901,132.394 656.735,131.142 636.673,142.724 616.612,131.142 
			614.444,132.394 		"/>
	</g>
	<g>
		<polygon fill="#F1F1F2" points="660.466,180.741 640.405,169.159 638.237,170.411 660.466,183.245 660.469,183.243 
			660.469,180.739 		"/>
	</g>
	<g>
		<polygon fill="#F1F1F2" points="589.497,61.865 611.726,49.031 609.558,47.779 589.497,59.361 569.437,47.779 567.267,49.031 		
			"/>
	</g>
	<g>
		<polygon fill="#F1F1F2" points="566.112,118.215 588.343,105.381 586.175,104.127 566.114,115.711 546.054,104.127 
			543.884,105.381 		"/>
	</g>
	<g>
		<polygon fill="#F1F1F2" points="566.114,107.215 588.343,94.378 586.175,93.127 566.114,104.711 546.054,93.127 543.884,94.378 		
			"/>
	</g>
	<g>
		<polygon fill="#F1F1F2" points="373.676,229.173 353.617,240.757 333.555,229.173 331.386,230.427 353.615,243.261 
			375.844,230.427 		"/>
	</g>
	<g>
		<polygon fill="#F1F1F2" points="566.114,114.547 588.343,101.712 586.175,100.46 566.114,112.045 546.054,100.46 543.884,101.712 
					"/>
	</g>
	<g>
		<polygon fill="#F1F1F2" points="520.091,125.059 542.321,137.894 564.55,125.059 542.321,112.228 		"/>
	</g>
	<g>
		<polygon fill="#F1F1F2" points="566.114,121.881 588.343,109.047 586.175,107.795 566.112,119.377 546.054,107.795 
			543.884,109.047 		"/>
	</g>
	<g>
		<polygon fill="#F1F1F2" points="566.114,110.881 588.343,98.046 586.175,96.794 566.114,108.377 546.054,96.794 543.884,98.046 		
			"/>
	</g>
	<g>
		<polygon fill="#F1F1F2" points="566.114,27.517 588.343,14.684 586.175,13.431 566.114,25.013 546.054,13.431 543.884,14.684 		
			"/>
	</g>
	<g>
		<polygon fill="#F1F1F2" points="566.112,34.852 588.343,22.017 586.175,20.763 566.114,32.348 546.054,20.763 543.884,22.017 		
			"/>
	</g>
	<g>
		<polygon fill="#F1F1F2" points="566.114,31.183 588.343,18.35 586.175,17.097 566.114,28.682 546.054,17.097 543.884,18.35 		"/>
	</g>
	<g>
		<polygon fill="#F1F1F2" points="566.114,38.519 588.343,25.683 586.175,24.431 566.112,36.015 546.054,24.431 543.884,25.683 		
			"/>
	</g>
	<g>
		<polygon fill="#F1F1F2" points="566.114,96.213 588.343,83.378 566.114,70.545 543.884,83.378 		"/>
	</g>
	<g>
		<polygon fill="#F1F1F2" points="566.114,99.88 588.343,87.046 586.175,85.795 566.114,97.376 546.054,85.795 543.884,87.046 		"/>
	</g>
	<g>
		<polygon fill="#F1F1F2" points="589.497,72.865 611.726,60.031 609.558,58.779 589.497,70.363 569.437,58.779 567.267,60.031 		
			"/>
	</g>
	<g>
		<polygon fill="#F1F1F2" points="377.411,31.183 399.638,18.349 397.47,17.098 377.409,28.681 357.349,17.098 355.18,18.349 		"/>
	</g>
	<g>
		<polygon fill="#F1F1F2" points="333.555,232.841 331.386,234.092 353.616,246.927 375.844,234.092 373.676,232.841 
			353.615,244.422 		"/>
	</g>
	<g>
		<polygon fill="#F1F1F2" points="399.638,7.35 397.471,6.097 377.409,17.679 357.349,6.097 355.18,7.35 377.411,20.183 		"/>
	</g>
	<g>
		<polygon fill="#F1F1F2" points="377.409,38.518 399.638,25.683 397.47,24.432 377.409,36.015 357.349,24.432 355.18,25.683 		"/>
	</g>
	<g>
		<polygon fill="#F1F1F2" points="377.409,34.851 399.638,22.018 397.47,20.763 377.411,32.347 357.349,20.763 355.18,22.018 		"/>
	</g>
	<g>
		<polygon fill="#F1F1F2" points="377.409,23.852 399.638,11.015 397.47,9.764 377.411,21.347 357.349,9.764 355.18,11.015 		"/>
	</g>
	<g>
		<polygon fill="#F1F1F2" points="377.409,27.517 399.638,14.684 397.47,13.431 377.409,25.013 357.349,13.431 355.18,14.684 		"/>
	</g>
	<g>
		<polygon fill="#F1F1F2" points="373.676,221.84 353.616,233.423 333.555,221.84 331.386,223.093 353.616,235.926 375.844,223.093 
					"/>
	</g>
	<g>
		<polygon fill="#F1F1F2" points="373.676,218.172 353.617,229.756 333.555,218.172 331.386,219.425 353.616,232.261 
			375.844,219.425 		"/>
	</g>
	<g>
		<polygon fill="#F1F1F2" points="353.616,195.59 331.386,208.425 353.616,221.259 375.844,208.425 		"/>
	</g>
	<g>
		<polygon fill="#F1F1F2" points="373.676,225.507 353.616,237.091 333.555,225.507 331.386,226.759 353.617,239.593 
			375.844,226.759 		"/>
	</g>
	<g>
		<polygon fill="#F1F1F2" points="373.677,214.507 353.616,226.088 333.555,214.507 331.386,215.758 353.617,228.593 
			375.844,215.758 		"/>
	</g>
	<g>
		<polygon fill="#F1F1F2" points="373.676,210.841 353.616,222.423 333.555,210.841 331.386,212.093 353.616,224.927 
			375.844,212.093 		"/>
	</g>
	<g>
		<polygon fill="#F1F1F2" points="566.114,103.546 588.343,90.712 586.175,89.461 566.114,101.042 546.054,89.461 543.884,90.712 		
			"/>
	</g>
	<g>
		<polygon fill="#F1F1F2" points="589.497,163.562 611.726,150.729 609.558,149.477 589.495,161.059 569.437,149.477 
			567.267,150.729 		"/>
	</g>
	<g>
		<polygon fill="#F1F1F2" points="566.114,23.851 588.343,11.016 586.175,9.763 566.114,21.347 546.054,9.763 543.884,11.016 		"/>
	</g>
	<g>
		<polygon fill="#F1F1F2" points="589.497,156.229 611.726,143.394 609.558,142.142 589.497,153.727 569.437,142.142 
			567.267,143.394 		"/>
	</g>
	<g>
		<polygon fill="#F1F1F2" points="589.495,159.896 611.726,147.062 609.558,145.809 589.497,157.393 569.437,145.809 
			567.267,147.062 		"/>
	</g>
	<g>
		<polygon fill="#F1F1F2" points="656.733,229.173 636.675,240.757 616.612,229.173 614.444,230.427 636.673,243.261 
			658.901,230.427 		"/>
	</g>
	<g>
		<polygon fill="#F1F1F2" points="635.519,192.411 633.351,191.159 613.29,202.741 593.229,191.159 591.062,192.411 613.29,205.245 
					"/>
	</g>
	<g>
		<polygon fill="#F1F1F2" points="589.497,141.562 611.726,128.728 609.558,127.476 589.497,139.058 569.437,127.476 
			567.267,128.728 		"/>
	</g>
	<g>
		<polygon fill="#F1F1F2" points="589.497,148.896 611.726,136.06 609.558,134.808 589.497,146.393 569.437,134.808 567.267,136.06 
					"/>
	</g>
	<g>
		<polygon fill="#F1F1F2" points="589.497,137.894 611.726,125.06 589.497,112.228 567.267,125.06 		"/>
	</g>
	<g>
		<polygon fill="#F1F1F2" points="589.495,76.533 611.726,63.699 609.558,62.445 589.497,74.029 569.437,62.445 567.267,63.699 		
			"/>
	</g>
	<g>
		<polygon fill="#F1F1F2" points="589.497,80.2 611.726,67.365 609.558,66.113 589.495,77.696 569.437,66.113 567.267,67.365 		"/>
	</g>
	<g>
		<polygon fill="#F1F1F2" points="616.612,232.841 614.444,234.093 636.673,246.927 658.901,234.093 656.733,232.841 
			636.673,244.423 		"/>
	</g>
	<g>
		<polygon fill="#F1F1F2" points="589.497,145.228 611.726,132.394 609.558,131.142 589.497,142.724 569.437,131.142 
			567.267,132.394 		"/>
	</g>
	<g>
		<polygon fill="#F1F1F2" points="589.497,152.562 611.726,139.728 609.558,138.476 589.497,150.059 569.437,138.476 
			567.267,139.728 		"/>
	</g>
	<g>
		<polygon fill="#F1F1F2" points="613.29,14.014 593.229,2.431 591.062,3.683 613.29,16.518 635.519,3.683 633.351,2.431 		"/>
	</g>
	<g>
		<polygon fill="#F1F1F2" points="640.405,2.431 638.237,3.683 660.466,16.517 660.469,16.516 660.469,14.011 660.466,14.013 		"/>
	</g>
	<g>
		<polygon fill="#F1F1F2" points="589.497,54.531 611.726,41.697 589.497,28.863 567.267,41.697 		"/>
	</g>
	<g>
		<polygon fill="#F1F1F2" points="636.673,54.531 658.901,41.697 636.673,28.863 614.444,41.697 		"/>
	</g>
	<g>
		<polygon fill="#F1F1F2" points="656.733,225.507 636.673,237.091 616.612,225.507 614.444,226.759 636.675,239.593 
			658.901,226.759 		"/>
	</g>
	<g>
		<polygon fill="#F1F1F2" points="588.343,3.683 586.175,2.431 566.114,14.013 546.054,2.431 543.884,3.683 566.114,16.517 		"/>
	</g>
	<g>
		<polygon fill="#F1F1F2" points="566.114,20.183 588.343,7.349 586.175,6.097 566.114,17.679 546.054,6.097 543.884,7.349 		"/>
	</g>
	<g>
		<polygon fill="#F1F1F2" points="656.735,214.507 636.673,226.089 616.612,214.507 614.444,215.759 636.675,228.593 
			658.901,215.759 		"/>
	</g>
	<g>
		<polygon fill="#F1F1F2" points="656.733,218.173 636.675,229.757 616.612,218.173 614.444,219.425 636.673,232.261 
			658.901,219.425 		"/>
	</g>
	<g>
		<polygon fill="#F1F1F2" points="660.469,205.243 660.469,202.739 660.466,202.741 640.405,191.159 638.237,192.411 
			660.466,205.245 		"/>
	</g>
	<g>
		<polygon fill="#F1F1F2" points="656.733,221.841 636.673,233.423 616.612,221.841 614.444,223.093 636.673,235.927 
			658.901,223.093 		"/>
	</g>
	<g>
		<polygon fill="#F1F1F2" points="636.673,195.591 614.444,208.425 636.673,221.259 658.901,208.425 		"/>
	</g>
	<g>
		<polygon fill="#F1F1F2" points="656.733,210.841 636.673,222.423 616.612,210.841 614.444,212.093 636.673,224.927 
			658.901,212.093 		"/>
	</g>
	<g>
		<polygon fill="#F1F1F2" points="188.706,20.183 210.933,7.349 208.766,6.098 188.705,17.679 168.644,6.098 166.475,7.349 		"/>
	</g>
	<g>
		<polygon fill="#F1F1F2" points="23.383,221.259 45.611,208.425 23.383,195.591 1.154,208.425 		"/>
	</g>
	<g>
		<polygon fill="#F1F1F2" points="47.176,14.013 27.115,2.431 24.947,3.683 47.176,16.517 69.404,3.683 67.237,2.431 		"/>
	</g>
	<g>
		<polygon fill="#F1F1F2" points="90.62,210.841 70.559,222.423 50.498,210.841 48.33,212.093 70.559,224.927 92.787,212.093 		"/>
	</g>
	<g>
		<polygon fill="#F1F1F2" points="47.175,34.851 69.404,22.017 67.237,20.763 47.177,32.347 27.115,20.763 24.947,22.017 		"/>
	</g>
	<g>
		<polygon fill="#F1F1F2" points="20.061,183.825 0,195.409 -0.001,195.408 -0.001,197.91 0.001,197.911 22.229,185.077 		"/>
	</g>
	<g>
		<polygon fill="#F1F1F2" points="22.229,188.745 20.061,187.491 0.001,199.075 -0.001,199.074 -0.001,201.579 0,201.579 		"/>
	</g>
	<g>
		<polygon fill="#F1F1F2" points="50.498,232.841 48.33,234.093 70.559,246.927 92.787,234.093 90.62,232.841 70.558,244.423 		"/>
	</g>
	<g>
		<polygon fill="#F1F1F2" points="90.62,229.173 70.56,240.757 50.498,229.173 48.33,230.427 70.558,243.261 92.787,230.427 		"/>
	</g>
	<g>
		<polygon fill="#F1F1F2" points="20.061,180.159 0,191.741 -0.001,191.74 -0.001,194.244 0,194.245 22.229,181.411 		"/>
	</g>
	<g>
		<polygon fill="#F1F1F2" points="47.176,38.518 69.404,25.683 67.237,24.431 47.175,36.014 27.115,24.431 24.947,25.683 		"/>
	</g>
	<g>
		<polygon fill="#F1F1F2" points="90.62,218.173 70.56,229.757 50.498,218.173 48.33,219.425 70.559,232.261 92.787,219.425 		"/>
	</g>
	<g>
		<polygon fill="#F1F1F2" points="90.62,221.841 70.559,233.423 50.498,221.841 48.33,223.093 70.559,235.927 92.787,223.093 		"/>
	</g>
	<g>
		<polygon fill="#F1F1F2" points="90.62,225.507 70.559,237.091 50.498,225.507 48.33,226.759 70.56,239.593 92.787,226.759 		"/>
	</g>
	<g>
		<polygon fill="#F1F1F2" points="90.62,214.507 70.559,226.089 50.498,214.507 48.33,215.759 70.56,228.593 92.787,215.759 		"/>
	</g>
	<g>
		<polygon fill="#F1F1F2" points="20.062,89.46 0,101.042 -0.001,101.042 -0.001,103.545 0.001,103.546 22.229,90.712 		"/>
	</g>
	<g>
		<polygon fill="#F1F1F2" points="20.061,85.794 0,97.376 -0.001,97.375 -0.001,99.88 0,99.881 22.229,87.047 		"/>
	</g>
	<g>
		<polygon fill="#F1F1F2" points="20.061,93.126 0.001,104.711 -0.001,104.709 -0.001,107.214 0,107.215 22.229,94.378 		"/>
	</g>
	<g>
		<polygon fill="#F1F1F2" points="20.061,24.432 0,36.014 -0.001,36.014 -0.001,38.518 0,38.519 22.229,25.684 		"/>
	</g>
	<g>
		<polygon fill="#F1F1F2" points="0,70.545 -0.001,70.546 -0.001,96.211 0,96.212 22.229,83.378 		"/>
	</g>
	<g>
		<polygon fill="#F1F1F2" points="20.061,96.795 0,108.377 -0.001,108.376 -0.001,110.88 0,110.881 22.229,98.046 		"/>
	</g>
	<g>
		<polygon fill="#F1F1F2" points="20.061,100.461 0,112.045 -0.001,112.044 -0.001,114.546 0.001,114.547 22.229,101.713 		"/>
	</g>
	<g>
		<polygon fill="#F1F1F2" points="0,153.909 -0.001,153.91 -0.001,179.576 0,179.577 22.229,166.743 		"/>
	</g>
	<g>
		<polygon fill="#F1F1F2" points="20.061,176.491 0.001,188.075 -0.001,188.074 -0.001,190.578 0,190.579 22.229,177.743 		"/>
	</g>
	<g>
		<polygon fill="#F1F1F2" points="20.062,172.825 0,184.407 -0.001,184.406 -0.001,186.91 0.001,186.911 22.229,174.077 		"/>
	</g>
	<g>
		<polygon fill="#F1F1F2" points="20.061,169.159 0,180.741 -0.001,180.74 -0.001,183.244 0,183.245 22.229,170.411 		"/>
	</g>
	<g>
		<polygon fill="#F1F1F2" points="20.061,107.795 0,119.377 -0.001,119.377 -0.001,121.88 0,121.881 22.229,109.047 		"/>
	</g>
	<g>
		<polygon fill="#F1F1F2" points="20.061,104.127 0.001,115.711 -0.001,115.71 -0.001,118.215 0,118.215 22.229,105.381 		"/>
	</g>
	<g>
		<polygon fill="#F1F1F2" points="94.354,31.183 116.581,18.349 114.413,17.097 94.352,28.682 74.292,17.097 72.123,18.349 		"/>
	</g>
	<g>
		<polygon fill="#F1F1F2" points="613.29,34.852 635.519,22.017 633.351,20.764 613.292,32.348 593.229,20.764 591.062,22.017 		"/>
	</g>
	<g>
		<polygon fill="#F1F1F2" points="94.352,183.245 116.581,170.411 114.413,169.159 94.352,180.741 74.292,169.159 72.123,170.411 		
			"/>
	</g>
	<g>
		<polygon fill="#F1F1F2" points="94.354,186.911 116.581,174.077 114.414,172.825 94.352,184.407 74.292,172.825 72.123,174.077 		
			"/>
	</g>
	<g>
		<polygon fill="#F1F1F2" points="94.352,194.245 116.581,181.411 114.413,180.159 94.352,191.741 74.292,180.159 72.123,181.411 		
			"/>
	</g>
	<g>
		<polygon fill="#F1F1F2" points="94.351,201.579 116.581,188.745 114.413,187.491 94.354,199.075 74.292,187.491 72.123,188.745 		
			"/>
	</g>
	<g>
		<polygon fill="#F1F1F2" points="94.352,205.245 116.581,192.411 114.413,191.159 94.351,202.741 74.292,191.159 72.123,192.411 		
			"/>
	</g>
	<g>
		<polygon fill="#F1F1F2" points="94.354,197.911 116.581,185.077 114.413,183.825 94.352,195.409 74.292,183.825 72.123,185.077 		
			"/>
	</g>
	<g>
		<polygon fill="#F1F1F2" points="94.352,27.517 116.581,14.683 114.413,13.432 94.352,25.013 74.292,13.432 72.123,14.683 		"/>
	</g>
	<g>
		<polygon fill="#F1F1F2" points="116.581,7.349 114.414,6.097 94.352,17.679 74.292,6.097 72.123,7.349 94.354,20.183 		"/>
	</g>
	<g>
		<polygon fill="#F1F1F2" points="94.352,23.851 116.581,11.016 114.413,9.763 94.354,21.347 74.292,9.763 72.123,11.016 		"/>
	</g>
	<g>
		<polygon fill="#F1F1F2" points="20.061,20.763 0.001,32.348 -0.001,32.346 -0.001,34.851 0,34.852 22.229,22.018 		"/>
	</g>
	<g>
		<polygon fill="#F1F1F2" points="94.352,38.518 116.581,25.683 114.413,24.431 94.351,36.014 74.292,24.431 72.123,25.683 		"/>
	</g>
	<g>
		<polygon fill="#F1F1F2" points="94.352,179.577 116.581,166.743 94.352,153.909 72.123,166.743 		"/>
	</g>
	<g>
		<polygon fill="#F1F1F2" points="137.797,214.507 117.735,226.089 97.674,214.507 95.505,215.759 117.736,228.593 139.963,215.759 
					"/>
	</g>
	<g>
		<polygon fill="#F1F1F2" points="70.559,221.259 92.787,208.425 70.559,195.591 48.33,208.425 		"/>
	</g>
	<g>
		<polygon fill="#F1F1F2" points="47.176,23.851 69.404,11.015 67.237,9.763 47.177,21.347 27.115,9.763 24.947,11.015 		"/>
	</g>
	<g>
		<polygon fill="#F1F1F2" points="117.735,195.591 95.505,208.425 117.735,221.259 139.963,208.425 		"/>
	</g>
	<g>
		<polygon fill="#F1F1F2" points="94.352,14.013 74.292,2.431 72.123,3.683 94.352,16.517 116.581,3.683 114.413,2.431 		"/>
	</g>
	<g>
		<polygon fill="#F1F1F2" points="47.176,27.517 69.404,14.683 67.237,13.431 47.176,25.013 27.115,13.431 24.947,14.683 		"/>
	</g>
	<g>
		<polygon fill="#F1F1F2" points="69.404,7.349 67.237,6.097 47.176,17.679 27.115,6.097 24.947,7.349 47.177,20.183 		"/>
	</g>
	<g>
		<polygon fill="#F1F1F2" points="137.795,210.841 117.735,222.423 97.674,210.841 95.505,212.093 117.735,224.927 139.963,212.093 
					"/>
	</g>
	<g>
		<polygon fill="#F1F1F2" points="137.795,225.507 117.735,237.091 97.674,225.507 95.505,226.759 117.736,239.593 139.963,226.759 
					"/>
	</g>
	<g>
		<polygon fill="#F1F1F2" points="137.795,221.841 117.735,233.423 97.674,221.841 95.505,223.093 117.735,235.927 139.963,223.093 
					"/>
	</g>
	<g>
		<polygon fill="#F1F1F2" points="137.795,229.173 117.736,240.757 97.674,229.173 95.505,230.427 117.734,243.261 139.963,230.427 
					"/>
	</g>
	<g>
		<polygon fill="#F1F1F2" points="97.674,232.841 95.505,234.093 117.735,246.927 139.963,234.093 137.795,232.841 117.734,244.423 
					"/>
	</g>
	<g>
		<polygon fill="#F1F1F2" points="47.177,31.183 69.404,18.349 67.237,17.097 47.176,28.681 27.115,17.097 24.947,18.349 		"/>
	</g>
	<g>
		<polygon fill="#F1F1F2" points="137.795,218.173 117.736,229.757 97.674,218.173 95.505,219.425 117.735,232.261 139.963,219.425 
					"/>
	</g>
	<g>
		<polygon fill="#F1F1F2" points="94.352,190.579 116.581,177.743 114.413,176.491 94.354,188.075 74.292,176.491 72.123,177.743 		
			"/>
	</g>
	<g>
		<polygon fill="#F1F1F2" points="164.912,239.593 187.14,226.759 184.972,225.506 164.911,237.091 144.851,225.506 
			142.681,226.759 		"/>
	</g>
	<g>
		<polygon fill="#F1F1F2" points="164.91,243.261 187.14,230.426 184.972,229.173 164.912,240.757 144.851,229.173 142.681,230.426 
					"/>
	</g>
	<g>
		<polygon fill="#F1F1F2" points="164.911,232.261 187.14,219.425 184.972,218.173 164.912,229.757 144.851,218.173 
			142.681,219.425 		"/>
	</g>
	<g>
		<polygon fill="#F1F1F2" points="164.911,235.927 187.14,223.093 184.972,221.841 164.911,233.423 144.851,221.841 
			142.681,223.093 		"/>
	</g>
	<g>
		<polygon fill="#F1F1F2" points="164.911,246.927 187.14,234.093 184.972,232.841 164.91,244.423 144.851,232.841 142.681,234.093 
					"/>
	</g>
	<g>
		<polygon fill="#F1F1F2" points="188.705,237.272 166.475,250.106 166.482,250.11 210.926,250.11 210.933,250.106 		"/>
	</g>
	<g>
		<polygon fill="#F1F1F2" points="188.705,205.245 210.933,192.411 208.765,191.159 188.704,202.741 168.644,191.159 
			166.475,192.411 		"/>
	</g>
	<g>
		<polygon fill="#F1F1F2" points="188.704,201.579 210.933,188.745 208.765,187.491 188.706,199.075 168.644,187.491 
			166.475,188.745 		"/>
	</g>
	<g>
		<polygon fill="#F1F1F2" points="188.706,197.911 210.933,185.077 208.765,183.825 188.705,195.409 168.644,183.825 
			166.475,185.077 		"/>
	</g>
	<g>
		<polygon fill="#F1F1F2" points="235.881,237.272 213.652,250.107 213.657,250.11 258.105,250.11 258.11,250.107 		"/>
	</g>
	<g>
		<polygon fill="#F1F1F2" points="164.912,228.593 187.14,215.758 184.973,214.507 164.911,226.089 144.851,214.507 
			142.681,215.758 		"/>
	</g>
	<g>
		<polygon fill="#F1F1F2" points="142.681,208.425 164.911,221.259 187.14,208.425 164.911,195.591 		"/>
	</g>
	<g>
		<polygon fill="#F1F1F2" points="164.911,224.926 187.14,212.093 184.972,210.841 164.911,222.423 144.851,210.841 
			142.681,212.093 		"/>
	</g>
	<g>
		<polygon fill="#F1F1F2" points="20.061,17.097 0,28.682 -0.001,28.681 -0.001,31.182 0.001,31.183 22.229,18.349 		"/>
	</g>
	<g>
		<polygon fill="#F1F1F2" points="609.558,210.841 589.497,222.423 569.437,210.841 567.267,212.093 589.497,224.927 
			611.726,212.093 		"/>
	</g>
	<g>
		<polygon fill="#F1F1F2" points="283.057,237.272 260.828,250.106 260.834,250.11 305.279,250.11 305.286,250.106 		"/>
	</g>
	<g>
		<polygon fill="#F1F1F2" points="589.497,195.591 567.267,208.425 589.497,221.259 611.726,208.425 		"/>
	</g>
	<g>
		<polygon fill="#F1F1F2" points="613.29,23.851 635.519,11.016 633.351,9.763 613.292,21.347 593.229,9.763 591.062,11.016 		"/>
	</g>
	<g>
		<polygon fill="#F1F1F2" points="613.29,27.517 635.519,14.683 633.351,13.432 613.29,25.013 593.229,13.432 591.062,14.683 		"/>
	</g>
	<g>
		<polygon fill="#F1F1F2" points="613.292,31.183 635.519,18.349 633.351,17.098 613.29,28.682 593.229,17.098 591.062,18.349 		"/>
	</g>
	<g>
		<polygon fill="#F1F1F2" points="188.705,194.245 210.933,181.411 208.765,180.159 188.705,191.741 168.644,180.159 
			166.475,181.411 		"/>
	</g>
	<g>
		<polygon fill="#F1F1F2" points="609.558,214.507 589.497,226.089 569.437,214.507 567.267,215.759 589.497,228.593 
			611.726,215.759 		"/>
	</g>
	<g>
		<polygon fill="#F1F1F2" points="569.437,232.841 567.267,234.093 589.497,246.927 611.726,234.093 609.558,232.841 
			589.495,244.423 		"/>
	</g>
	<g>
		<polygon fill="#F1F1F2" points="609.558,229.173 589.497,240.757 569.437,229.173 567.267,230.427 589.495,243.261 
			611.726,230.427 		"/>
	</g>
	<g>
		<polygon fill="#F1F1F2" points="609.558,225.507 589.497,237.091 569.437,225.507 567.267,226.759 589.497,239.593 
			611.726,226.759 		"/>
	</g>
	<g>
		<polygon fill="#F1F1F2" points="609.558,221.841 589.497,233.423 569.437,221.841 567.267,223.093 589.497,235.927 
			611.726,223.093 		"/>
	</g>
	<g>
		<polygon fill="#F1F1F2" points="609.558,218.173 589.497,229.757 569.437,218.173 567.267,219.425 589.497,232.261 
			611.726,219.425 		"/>
	</g>
	<g>
		<polygon fill="#F1F1F2" points="635.519,7.35 633.353,6.097 613.29,17.679 593.229,6.097 591.062,7.35 613.292,20.184 		"/>
	</g>
	<g>
		<polygon fill="#F1F1F2" points="43.443,218.173 23.384,229.757 3.323,218.173 1.154,219.425 23.383,232.261 45.611,219.425 		"/>
	</g>
	<g>
		<polygon fill="#F1F1F2" points="43.444,214.507 23.383,226.089 3.323,214.507 1.154,215.759 23.384,228.593 45.611,215.759 		"/>
	</g>
	<g>
		<polygon fill="#F1F1F2" points="43.443,221.841 23.383,233.423 3.323,221.841 1.154,223.093 23.383,235.927 45.611,223.093 		"/>
	</g>
	<g>
		<polygon fill="#F1F1F2" points="43.443,225.507 23.383,237.091 3.323,225.507 1.154,226.759 23.384,239.593 45.611,226.759 		"/>
	</g>
	<g>
		<polygon fill="#F1F1F2" points="0,14.013 -0.001,14.012 -0.001,16.516 0,16.517 22.229,3.683 20.061,2.431 		"/>
	</g>
	<g>
		<polygon fill="#F1F1F2" points="43.443,210.841 23.383,222.423 3.323,210.841 1.154,212.093 23.383,224.927 45.611,212.093 		"/>
	</g>
	<g>
		<polygon fill="#F1F1F2" points="22.229,192.411 20.061,191.159 0,202.741 -0.001,202.741 -0.001,205.244 0,205.245 		"/>
	</g>
	<g>
		<polygon fill="#F1F1F2" points="20.062,6.097 0,17.679 -0.001,17.678 -0.001,20.182 0.001,20.183 22.229,7.349 		"/>
	</g>
	<g>
		<polygon fill="#F1F1F2" points="20.061,9.764 0.001,21.347 -0.001,21.346 -0.001,23.851 0,23.852 22.229,11.015 		"/>
	</g>
	<g>
		<polygon fill="#F1F1F2" points="20.061,13.431 0,25.013 -0.001,25.012 -0.001,27.516 0,27.517 22.229,14.683 		"/>
	</g>
	<g>
		<polygon fill="#F1F1F2" points="0,237.272 -0.001,237.273 -0.001,250.11 22.222,250.11 22.229,250.106 		"/>
	</g>
	<g>
		<polygon fill="#F1F1F2" points="3.323,232.841 1.154,234.093 23.383,246.927 45.611,234.093 43.443,232.841 23.382,244.423 		"/>
	</g>
	<g>
		<polygon fill="#F1F1F2" points="43.443,229.173 23.384,240.757 3.323,229.173 1.154,230.427 23.382,243.261 45.611,230.427 		"/>
	</g>
	<g>
		<polygon fill="#F1F1F2" points="188.706,186.911 210.933,174.077 208.766,172.825 188.705,184.407 168.644,172.825 
			166.475,174.077 		"/>
	</g>
	<g>
		<polygon fill="#F1F1F2" points="188.705,179.577 210.933,166.743 188.705,153.909 166.475,166.743 		"/>
	</g>
	<g>
		<polygon fill="#F1F1F2" points="47.176,237.272 24.947,250.106 24.954,250.11 69.397,250.11 69.404,250.106 		"/>
	</g>
	<g>
		<polygon fill="#F1F1F2" points="188.704,34.851 210.933,22.017 208.765,20.763 188.706,32.347 168.644,20.763 166.475,22.017 		
			"/>
	</g>
	<g>
		<polygon fill="#F1F1F2" points="188.705,38.518 210.933,25.683 208.765,24.432 188.704,36.014 168.644,24.432 166.475,25.683 		
			"/>
	</g>
	<g>
		<polygon fill="#F1F1F2" points="188.705,190.579 210.933,177.743 208.765,176.491 188.706,188.075 168.644,176.491 
			166.475,177.743 		"/>
	</g>
	<g>
		<polygon fill="#F1F1F2" points="188.705,183.245 210.933,170.411 208.765,169.159 188.705,180.741 168.644,169.159 
			166.475,170.411 		"/>
	</g>
	<g>
		<polygon fill="#F1F1F2" points="188.706,31.183 210.933,18.35 208.765,17.097 188.705,28.681 168.644,17.097 166.475,18.35 		"/>
	</g>
	<g>
		<polygon fill="#F1F1F2" points="141.528,237.272 119.299,250.106 119.306,250.11 163.75,250.11 163.756,250.106 		"/>
	</g>
	<g>
		<polygon fill="#F1F1F2" points="94.352,237.272 72.123,250.106 72.13,250.11 116.574,250.11 116.581,250.106 		"/>
	</g>
	<g>
		<polygon fill="#F1F1F2" points="424.585,23.852 446.814,11.016 444.646,9.763 424.586,21.348 404.525,9.763 402.356,11.016 		"/>
	</g>
	<g>
		<polygon fill="#F1F1F2" points="210.933,3.683 208.765,2.431 188.705,14.013 168.644,2.431 166.475,3.683 188.705,16.517 		"/>
	</g>
	<g>
		<polygon fill="#F1F1F2" points="188.705,23.852 210.933,11.015 208.765,9.763 188.706,21.347 168.644,9.763 166.475,11.015 		"/>
	</g>
	<g>
		<polygon fill="#F1F1F2" points="188.705,27.517 210.933,14.683 208.765,13.431 188.705,25.013 168.644,13.431 166.475,14.683 		
			"/>
	</g>
	<g>
		<polygon fill="#F1F1F2" points="94.351,34.852 116.581,22.018 114.413,20.763 94.354,32.347 74.292,20.763 72.123,22.018 		"/>
	</g>
	<g>
		<polygon fill="#F1F1F2" points="542.321,195.591 520.091,208.425 542.321,221.259 564.55,208.425 		"/>
	</g>
	<g>
		<polygon fill="#F1F1F2" points="562.382,142.142 542.321,153.727 522.26,142.142 520.091,143.394 542.321,156.229 564.55,143.394 
					"/>
	</g>
	<g>
		<polygon fill="#F1F1F2" points="562.382,218.173 542.321,229.757 522.26,218.173 520.091,219.425 542.321,232.261 564.55,219.425 
					"/>
	</g>
	<g>
		<polygon fill="#F1F1F2" points="562.382,214.507 542.321,226.089 522.26,214.507 520.091,215.759 542.321,228.593 564.55,215.759 
					"/>
	</g>
	<g>
		<polygon fill="#F1F1F2" points="562.382,145.809 542.321,157.393 522.26,145.809 520.091,147.062 542.319,159.896 564.55,147.062 
					"/>
	</g>
	<g>
		<polygon fill="#F1F1F2" points="562.382,149.477 542.319,161.059 522.26,149.477 520.091,150.729 542.321,163.562 564.55,150.729 
					"/>
	</g>
	<g>
		<polygon fill="#F1F1F2" points="562.382,210.841 542.321,222.423 522.26,210.841 520.091,212.093 542.321,224.927 564.55,212.093 
					"/>
	</g>
	<g>
		<polygon fill="#F1F1F2" points="541.167,192.411 538.999,191.159 518.937,202.74 498.877,191.159 496.708,192.411 
			518.938,205.244 		"/>
	</g>
	<g>
		<polygon fill="#F1F1F2" points="562.382,229.173 542.321,240.757 522.26,229.173 520.091,230.426 542.319,243.261 564.55,230.426 
					"/>
	</g>
	<g>
		<polygon fill="#F1F1F2" points="562.382,221.841 542.321,233.423 522.26,221.841 520.091,223.093 542.321,235.927 564.55,223.093 
					"/>
	</g>
	<g>
		<polygon fill="#F1F1F2" points="495.145,195.591 472.915,208.425 495.145,221.259 517.373,208.425 		"/>
	</g>
	<g>
		<polygon fill="#F1F1F2" points="562.382,225.507 542.321,237.091 522.26,225.507 520.091,226.758 542.321,239.593 564.55,226.758 
					"/>
	</g>
	<g>
		<polygon fill="#F1F1F2" points="522.26,232.841 520.091,234.092 542.321,246.927 564.55,234.092 562.382,232.841 542.319,244.423 
					"/>
	</g>
	<g>
		<polygon fill="#F1F1F2" points="518.938,121.881 541.167,109.047 538.999,107.795 518.937,119.377 498.877,107.795 
			496.708,109.047 		"/>
	</g>
	<g>
		<polygon fill="#F1F1F2" points="518.937,118.215 541.167,105.381 538.999,104.127 518.939,115.711 498.877,104.127 
			496.708,105.381 		"/>
	</g>
	<g>
		<polygon fill="#F1F1F2" points="518.939,114.547 541.167,101.712 538.999,100.46 518.938,112.045 498.877,100.46 496.708,101.712 
					"/>
	</g>
	<g>
		<polygon fill="#F1F1F2" points="518.938,110.881 541.167,98.046 538.999,96.794 518.938,108.377 498.877,96.794 496.708,98.046 		
			"/>
	</g>
	<g>
		<polygon fill="#F1F1F2" points="515.206,210.841 495.145,222.423 475.084,210.841 472.915,212.093 495.145,224.927 
			517.373,212.093 		"/>
	</g>
	<g>
		<polygon fill="#F1F1F2" points="518.938,107.215 541.167,94.378 538.999,93.126 518.939,104.711 498.877,93.126 496.708,94.378 		
			"/>
	</g>
	<g>
		<polygon fill="#F1F1F2" points="472.915,125.06 495.145,137.894 517.373,125.06 495.145,112.228 		"/>
	</g>
	<g>
		<polygon fill="#F1F1F2" points="562.382,131.142 542.321,142.724 522.26,131.142 520.091,132.393 542.321,145.228 564.55,132.393 
					"/>
	</g>
	<g>
		<polygon fill="#F1F1F2" points="562.382,138.476 542.321,150.059 522.26,138.476 520.091,139.728 542.321,152.562 564.55,139.728 
					"/>
	</g>
	<g>
		<polygon fill="#F1F1F2" points="562.382,134.808 542.321,146.393 522.26,134.808 520.091,136.059 542.321,148.896 564.55,136.059 
					"/>
	</g>
	<g>
		<polygon fill="#F1F1F2" points="518.939,103.546 541.167,90.712 538.999,89.46 518.938,101.042 498.877,89.46 496.708,90.712 		
			"/>
	</g>
	<g>
		<polygon fill="#F1F1F2" points="562.382,127.476 542.321,139.058 522.26,127.476 520.091,128.727 542.321,141.562 564.55,128.727 
					"/>
	</g>
	<g>
		<polygon fill="#F1F1F2" points="518.938,99.88 541.167,87.046 538.999,85.794 518.938,97.376 498.877,85.794 496.708,87.046 		"/>
	</g>
	<g>
		<polygon fill="#F1F1F2" points="541.167,83.378 518.938,70.545 496.708,83.378 518.938,96.212 		"/>
	</g>
	<g>
		<polygon fill="#F1F1F2" points="446.814,192.411 444.646,191.159 424.585,202.741 404.525,191.159 402.356,192.411 
			424.585,205.245 		"/>
	</g>
	<g>
		<polygon fill="#F1F1F2" points="420.853,210.841 400.792,222.423 380.731,210.841 378.563,212.093 400.792,224.927 
			423.021,212.093 		"/>
	</g>
	<g>
		<polygon fill="#F1F1F2" points="420.854,214.507 400.792,226.089 380.731,214.507 378.563,215.759 400.793,228.593 
			423.021,215.759 		"/>
	</g>
	<g>
		<polygon fill="#F1F1F2" points="420.853,218.173 400.793,229.757 380.731,218.173 378.563,219.425 400.792,232.261 
			423.021,219.425 		"/>
	</g>
	<g>
		<polygon fill="#F1F1F2" points="420.853,221.841 400.792,233.423 380.731,221.841 378.563,223.093 400.792,235.927 
			423.021,223.093 		"/>
	</g>
	<g>
		<polygon fill="#F1F1F2" points="468.029,229.173 447.969,240.757 427.908,229.173 425.739,230.427 447.968,243.261 
			470.197,230.427 		"/>
	</g>
	<g>
		<polygon fill="#F1F1F2" points="400.792,195.591 378.563,208.425 400.792,221.259 423.021,208.425 		"/>
	</g>
	<g>
		<polygon fill="#F1F1F2" points="471.762,14.013 451.701,2.431 449.533,3.684 471.762,16.518 493.99,3.684 491.822,2.431 		"/>
	</g>
	<g>
		<polygon fill="#F1F1F2" points="353.616,163.562 375.844,150.729 373.676,149.477 353.615,161.059 333.555,149.477 
			331.386,150.729 		"/>
	</g>
	<g>
		<polygon fill="#F1F1F2" points="353.615,159.896 375.844,147.062 373.676,145.809 353.617,157.393 333.555,145.809 
			331.386,147.062 		"/>
	</g>
	<g>
		<polygon fill="#F1F1F2" points="399.638,192.411 397.47,191.159 377.409,202.741 357.349,191.159 355.18,192.411 377.409,205.245 
					"/>
	</g>
	<g>
		<polygon fill="#F1F1F2" points="420.853,225.507 400.792,237.091 380.731,225.507 378.563,226.759 400.793,239.593 
			423.021,226.759 		"/>
	</g>
	<g>
		<polygon fill="#F1F1F2" points="380.731,232.841 378.563,234.093 400.792,246.927 423.021,234.093 420.853,232.841 
			400.792,244.423 		"/>
	</g>
	<g>
		<polygon fill="#F1F1F2" points="420.853,229.173 400.793,240.757 380.731,229.173 378.563,230.427 400.792,243.261 
			423.021,230.427 		"/>
	</g>
	<g>
		<polygon fill="#F1F1F2" points="468.029,210.841 447.968,222.423 427.908,210.841 425.739,212.094 447.968,224.927 
			470.197,212.094 		"/>
	</g>
	<g>
		<polygon fill="#F1F1F2" points="475.084,232.841 472.915,234.093 495.145,246.927 517.373,234.093 515.206,232.841 
			495.144,244.423 		"/>
	</g>
	<g>
		<polygon fill="#F1F1F2" points="515.206,225.507 495.145,237.091 475.084,225.507 472.915,226.759 495.145,239.593 
			517.373,226.759 		"/>
	</g>
	<g>
		<polygon fill="#F1F1F2" points="515.206,229.173 495.145,240.757 475.084,229.173 472.915,230.427 495.144,243.261 
			517.373,230.427 		"/>
	</g>
	<g>
		<polygon fill="#F1F1F2" points="493.99,192.411 491.822,191.159 471.761,202.741 451.701,191.159 449.533,192.411 
			471.762,205.245 		"/>
	</g>
	<g>
		<polygon fill="#F1F1F2" points="515.206,218.173 495.145,229.757 475.084,218.173 472.915,219.425 495.145,232.261 
			517.373,219.425 		"/>
	</g>
	<g>
		<polygon fill="#F1F1F2" points="353.617,156.229 375.844,143.394 373.676,142.141 353.616,153.727 333.555,142.141 
			331.386,143.394 		"/>
	</g>
	<g>
		<polygon fill="#F1F1F2" points="515.207,214.507 495.145,226.089 475.084,214.507 472.915,215.759 495.145,228.593 
			517.373,215.759 		"/>
	</g>
	<g>
		<polygon fill="#F1F1F2" points="468.029,221.841 447.968,233.423 427.908,221.841 425.739,223.093 447.968,235.927 
			470.197,223.093 		"/>
	</g>
	<g>
		<polygon fill="#F1F1F2" points="468.029,225.507 447.968,237.091 427.908,225.507 425.739,226.76 447.969,239.593 470.197,226.76 
					"/>
	</g>
	<g>
		<polygon fill="#F1F1F2" points="468.029,218.173 447.969,229.757 427.908,218.173 425.739,219.425 447.968,232.261 
			470.197,219.425 		"/>
	</g>
	<g>
		<polygon fill="#F1F1F2" points="447.968,195.591 425.739,208.425 447.968,221.26 470.197,208.425 		"/>
	</g>
	<g>
		<polygon fill="#F1F1F2" points="468.03,214.507 447.968,226.09 427.908,214.507 425.739,215.76 447.969,228.593 470.197,215.76 		
			"/>
	</g>
	<g>
		<polygon fill="#F1F1F2" points="427.908,232.841 425.739,234.093 447.968,246.927 470.197,234.093 468.029,232.841 
			447.968,244.423 		"/>
	</g>
	<g>
		<polygon fill="#F1F1F2" points="515.206,221.841 495.145,233.423 475.084,221.841 472.915,223.093 495.145,235.927 
			517.373,223.093 		"/>
	</g>
	<g>
		<polygon fill="#F1F1F2" points="424.585,237.272 402.356,250.106 402.363,250.11 446.807,250.11 446.814,250.106 		"/>
	</g>
	<g>
		<polygon fill="#F1F1F2" points="283.057,205.245 305.286,192.411 303.118,191.159 283.056,202.741 262.997,191.159 
			260.828,192.411 		"/>
	</g>
	<g>
		<polygon fill="#F1F1F2" points="330.233,237.272 308.003,250.105 308.012,250.11 352.453,250.11 352.461,250.105 		"/>
	</g>
	<g>
		<polygon fill="#F1F1F2" points="377.409,237.272 355.18,250.106 355.187,250.11 399.631,250.11 399.638,250.106 		"/>
	</g>
	<g>
		<polygon fill="#F1F1F2" points="446.814,7.35 444.647,6.098 424.585,17.68 404.525,6.098 402.356,7.35 424.586,20.183 		"/>
	</g>
	<g>
		<polygon fill="#F1F1F2" points="471.762,237.272 449.533,250.106 449.54,250.11 493.983,250.11 493.99,250.106 		"/>
	</g>
	<g>
		<polygon fill="#F1F1F2" points="283.057,190.579 305.286,177.743 303.118,176.491 283.058,188.075 262.997,176.491 
			260.828,177.743 		"/>
	</g>
	<g>
		<polygon fill="#F1F1F2" points="283.056,201.579 305.286,188.745 303.118,187.491 283.058,199.075 262.997,187.491 
			260.828,188.745 		"/>
	</g>
	<g>
		<polygon fill="#F1F1F2" points="566.114,237.272 543.884,250.106 543.891,250.11 588.336,250.11 588.343,250.106 		"/>
	</g>
	<g>
		<polygon fill="#F1F1F2" points="305.286,166.743 283.057,153.909 260.828,166.743 283.057,179.577 		"/>
	</g>
	<g>
		<polygon fill="#F1F1F2" points="283.058,186.911 305.286,174.077 303.119,172.825 283.057,184.407 262.997,172.825 
			260.828,174.077 		"/>
	</g>
	<g>
		<polygon fill="#F1F1F2" points="283.058,197.911 305.286,185.077 303.118,183.825 283.057,195.409 262.997,183.825 
			260.828,185.077 		"/>
	</g>
	<g>
		<polygon fill="#F1F1F2" points="283.057,194.245 305.286,181.411 303.118,180.159 283.057,191.741 262.997,180.159 
			260.828,181.411 		"/>
	</g>
	<g>
		<polygon fill="#F1F1F2" points="283.057,183.245 305.286,170.411 303.118,169.159 283.057,180.741 262.997,169.159 
			260.828,170.411 		"/>
	</g>
	<g>
		<polygon fill="#F1F1F2" points="447.968,54.531 470.197,41.698 447.968,28.863 425.739,41.698 		"/>
	</g>
	<g>
		<polygon fill="#F1F1F2" points="377.409,12.849 399.638,0.016 399.611,0 355.207,0 355.18,0.016 		"/>
	</g>
	<g>
		<polygon fill="#F1F1F2" points="330.233,12.849 352.461,0.015 352.436,0 308.029,0 308.003,0.015 		"/>
	</g>
	<g>
		<polygon fill="#F1F1F2" points="94.352,12.849 116.581,0.015 116.555,0 72.149,0 72.123,0.015 		"/>
	</g>
	<g>
		<polygon fill="#F1F1F2" points="-0.001,12.849 0,12.85 22.229,0.016 22.202,0 -0.001,0 		"/>
	</g>
	<g>
		<polygon fill="#F1F1F2" points="613.29,237.272 591.062,250.106 591.068,250.11 635.512,250.11 635.519,250.106 		"/>
	</g>
	<g>
		<polygon fill="#F1F1F2" points="47.176,12.849 69.404,0.015 69.378,0 24.973,0 24.947,0.015 		"/>
	</g>
	<g>
		<polygon fill="#F1F1F2" points="660.466,12.85 660.469,12.848 660.469,0 638.264,0 638.237,0.015 		"/>
	</g>
	<g>
		<polygon fill="#F1F1F2" points="660.469,237.274 660.466,237.272 638.237,250.106 638.244,250.11 660.469,250.11 		"/>
	</g>
	<g>
		<polygon fill="#F1F1F2" points="613.29,12.849 635.519,0.015 635.492,0 591.088,0 591.062,0.015 		"/>
	</g>
	<g>
		<polygon fill="#F1F1F2" points="471.762,12.849 493.99,0.015 493.964,0 449.559,0 449.533,0.015 		"/>
	</g>
	<g>
		<polygon fill="#F1F1F2" points="566.114,12.849 588.343,0.015 588.317,0 543.909,0 543.884,0.015 		"/>
	</g>
	<g>
		<polygon fill="#F1F1F2" points="424.585,12.85 446.814,0.016 446.787,0 402.383,0 402.356,0.016 		"/>
	</g>
	<g>
		<polygon fill="#F1F1F2" points="188.705,12.849 210.933,0.016 210.906,0 166.502,0 166.475,0.016 		"/>
	</g>
	<g>
		<polygon fill="#F1F1F2" points="330.234,31.183 352.461,18.349 350.293,17.097 330.233,28.681 310.172,17.097 308.003,18.349 		
			"/>
	</g>
	<g>
		<polygon fill="#F1F1F2" points="330.233,183.244 352.461,170.411 350.293,169.158 330.233,180.741 310.172,169.158 
			308.003,170.411 		"/>
	</g>
	<g>
		<polygon fill="#F1F1F2" points="330.232,34.851 352.461,22.017 350.293,20.763 330.234,32.347 310.172,20.763 308.003,22.017 		
			"/>
	</g>
	<g>
		<polygon fill="#F1F1F2" points="330.233,179.576 352.461,166.743 330.233,153.909 308.003,166.743 		"/>
	</g>
	<g>
		<polygon fill="#F1F1F2" points="330.233,23.851 352.461,11.015 350.293,9.763 330.234,21.347 310.172,9.763 308.003,11.015 		"/>
	</g>
	<g>
		<polygon fill="#F1F1F2" points="330.233,38.518 352.461,25.683 350.293,24.431 330.232,36.014 310.172,24.431 308.003,25.683 		
			"/>
	</g>
	<g>
		<polygon fill="#F1F1F2" points="330.233,27.517 352.461,14.683 350.293,13.431 330.233,25.013 310.172,13.431 308.003,14.683 		
			"/>
	</g>
	<g>
		<polygon fill="#F1F1F2" points="352.461,3.683 350.293,2.431 330.233,14.013 310.172,2.431 308.003,3.683 330.233,16.517 		"/>
	</g>
	<g>
		<polygon fill="#F1F1F2" points="424.585,14.013 404.525,2.432 402.356,3.683 424.585,16.518 446.814,3.683 444.646,2.432 		"/>
	</g>
	<g>
		<polygon fill="#F1F1F2" points="377.409,14.013 357.349,2.431 355.18,3.683 377.409,16.518 399.638,3.683 397.47,2.431 		"/>
	</g>
	<g>
		<polygon fill="#F1F1F2" points="400.792,54.531 423.021,41.697 400.792,28.863 378.563,41.697 		"/>
	</g>
	<g>
		<polygon fill="#F1F1F2" points="353.616,54.531 375.844,41.697 353.616,28.863 331.386,41.697 		"/>
	</g>
	<g>
		<polygon fill="#F1F1F2" points="330.234,20.183 352.461,7.349 350.294,6.097 330.233,17.679 310.172,6.097 308.003,7.349 		"/>
	</g>
	<g>
		<polygon fill="#F1F1F2" points="326.5,210.841 306.44,222.423 286.379,210.841 284.21,212.093 306.44,224.927 328.668,212.093 		
			"/>
	</g>
	<g>
		<polygon fill="#F1F1F2" points="326.5,225.507 306.44,237.091 286.379,225.507 284.21,226.759 306.441,239.593 328.668,226.759 		
			"/>
	</g>
	<g>
		<polygon fill="#F1F1F2" points="326.5,221.841 306.44,233.423 286.379,221.841 284.21,223.093 306.44,235.927 328.668,223.093 		
			"/>
	</g>
	<g>
		<polygon fill="#F1F1F2" points="326.5,229.173 306.441,240.757 286.379,229.173 284.21,230.427 306.439,243.261 328.668,230.427 
					"/>
	</g>
	<g>
		<polygon fill="#F1F1F2" points="286.379,232.841 284.21,234.093 306.44,246.927 328.668,234.093 326.5,232.841 306.439,244.423 		
			"/>
	</g>
	<g>
		<polygon fill="#F1F1F2" points="326.5,218.173 306.441,229.757 286.379,218.173 284.21,219.425 306.44,232.261 328.668,219.425 		
			"/>
	</g>
	<g>
		<polygon fill="#F1F1F2" points="326.501,214.507 306.44,226.089 286.379,214.507 284.21,215.759 306.441,228.593 328.668,215.759 
					"/>
	</g>
	<g>
		<polygon fill="#F1F1F2" points="284.21,208.425 306.44,221.259 328.668,208.425 306.44,195.591 		"/>
	</g>
	<g>
		<polygon fill="#F1F1F2" points="330.233,194.245 352.461,181.41 350.293,180.159 330.233,191.74 310.172,180.159 308.003,181.41 
					"/>
	</g>
	<g>
		<polygon fill="#F1F1F2" points="330.233,190.579 352.461,177.742 350.293,176.491 330.234,188.075 310.172,176.491 
			308.003,177.742 		"/>
	</g>
	<g>
		<polygon fill="#F1F1F2" points="330.234,197.91 352.461,185.077 350.293,183.824 330.233,195.408 310.172,183.824 
			308.003,185.077 		"/>
	</g>
	<g>
		<polygon fill="#F1F1F2" points="330.232,201.578 352.461,188.745 350.293,187.491 330.234,199.075 310.172,187.491 
			308.003,188.745 		"/>
	</g>
	<g>
		<polygon fill="#F1F1F2" points="330.233,205.245 352.461,192.411 350.293,191.159 330.232,202.741 310.172,191.159 
			308.003,192.411 		"/>
	</g>
	<g>
		<polygon fill="#F1F1F2" points="330.234,186.911 352.461,174.077 350.294,172.825 330.233,184.407 310.172,172.825 
			308.003,174.077 		"/>
	</g>
	<g>
		<polygon fill="#F1F1F2" points="518.938,237.272 496.708,250.106 496.715,250.11 541.16,250.11 541.167,250.106 		"/>
	</g>
	<g>
		<polygon fill="#F1F1F2" points="424.586,114.547 446.814,101.713 444.646,100.46 424.585,112.045 404.525,100.46 402.356,101.713 
					"/>
	</g>
	<g>
		<polygon fill="#F1F1F2" points="424.585,118.215 446.814,105.381 444.646,104.127 424.586,115.711 404.525,104.127 
			402.356,105.381 		"/>
	</g>
	<g>
		<polygon fill="#F1F1F2" points="468.029,142.143 447.968,153.727 427.908,142.143 425.739,143.394 447.969,156.229 
			470.197,143.394 		"/>
	</g>
	<g>
		<polygon fill="#F1F1F2" points="424.585,121.881 446.814,109.047 444.646,107.795 424.585,119.377 404.525,107.795 
			402.356,109.047 		"/>
	</g>
	<g>
		<polygon fill="#F1F1F2" points="427.908,145.809 425.739,147.062 447.968,159.896 470.197,147.062 468.029,145.809 
			447.969,157.393 		"/>
	</g>
	<g>
		<polygon fill="#F1F1F2" points="468.029,138.477 447.968,150.059 427.908,138.477 425.739,139.728 447.968,152.562 
			470.197,139.728 		"/>
	</g>
	<g>
		<polygon fill="#F1F1F2" points="424.585,110.881 446.814,98.046 444.646,96.795 424.585,108.377 404.525,96.795 402.356,98.046 		
			"/>
	</g>
	<g>
		<polygon fill="#F1F1F2" points="447.968,137.894 470.197,125.06 447.968,112.228 425.739,125.06 		"/>
	</g>
	<g>
		<polygon fill="#F1F1F2" points="447.968,80.2 470.197,67.365 468.029,66.114 447.968,77.696 427.908,66.114 425.739,67.365 		"/>
	</g>
	<g>
		<polygon fill="#F1F1F2" points="447.968,76.533 470.197,63.699 468.029,62.445 447.969,74.03 427.908,62.445 425.739,63.699 		"/>
	</g>
	<g>
		<polygon fill="#F1F1F2" points="468.029,134.808 447.969,146.393 427.908,134.808 425.739,136.06 447.968,148.896 470.197,136.06 
					"/>
	</g>
	<g>
		<polygon fill="#F1F1F2" points="447.969,72.865 470.197,60.031 468.029,58.779 447.968,70.363 427.908,58.779 425.739,60.031 		
			"/>
	</g>
	<g>
		<polygon fill="#F1F1F2" points="446.814,90.713 444.647,89.46 424.585,101.043 404.525,89.46 402.356,90.713 424.586,103.546 		
			"/>
	</g>
	<g>
		<polygon fill="#F1F1F2" points="424.585,107.215 446.814,94.379 444.646,93.127 424.586,104.711 404.525,93.127 402.356,94.379 		
			"/>
	</g>
	<g>
		<polygon fill="#F1F1F2" points="377.411,103.546 399.638,90.712 397.471,89.461 377.409,101.042 357.349,89.461 355.18,90.712 		
			"/>
	</g>
	<g>
		<polygon fill="#F1F1F2" points="420.853,134.808 400.793,146.393 380.731,134.808 378.563,136.06 400.792,148.896 423.021,136.06 
					"/>
	</g>
	<g>
		<polygon fill="#F1F1F2" points="420.854,131.142 400.792,142.724 380.731,131.142 378.563,132.394 400.793,145.228 
			423.021,132.394 		"/>
	</g>
	<g>
		<polygon fill="#F1F1F2" points="420.853,127.476 400.792,139.058 380.731,127.476 378.563,128.728 400.792,141.562 
			423.021,128.728 		"/>
	</g>
	<g>
		<polygon fill="#F1F1F2" points="399.638,87.046 397.47,85.794 377.409,97.376 357.349,85.794 355.18,87.046 377.409,99.88 		"/>
	</g>
	<g>
		<polygon fill="#F1F1F2" points="353.616,152.562 375.844,139.727 373.676,138.476 353.616,150.059 333.555,138.476 
			331.386,139.727 		"/>
	</g>
	<g>
		<polygon fill="#F1F1F2" points="400.792,137.894 423.021,125.06 400.792,112.228 378.563,125.06 		"/>
	</g>
	<g>
		<polygon fill="#F1F1F2" points="424.585,97.376 404.525,85.795 402.356,87.047 424.585,99.88 446.814,87.047 444.646,85.795 		"/>
	</g>
	<g>
		<polygon fill="#F1F1F2" points="420.853,138.476 400.792,150.059 380.731,138.476 378.563,139.728 400.792,152.562 
			423.021,139.728 		"/>
	</g>
	<g>
		<polygon fill="#F1F1F2" points="468.029,127.477 447.968,139.058 427.908,127.477 425.739,128.728 447.968,141.562 
			470.197,128.728 		"/>
	</g>
	<g>
		<polygon fill="#F1F1F2" points="468.03,131.142 447.968,142.724 427.908,131.142 425.739,132.394 447.969,145.228 
			470.197,132.394 		"/>
	</g>
	<g>
		<polygon fill="#F1F1F2" points="420.853,142.142 400.792,153.727 380.731,142.142 378.563,143.394 400.793,156.229 
			423.021,143.394 		"/>
	</g>
	<g>
		<polygon fill="#F1F1F2" points="380.731,145.809 378.563,147.062 400.792,159.896 423.021,147.062 420.853,145.809 
			400.793,157.393 		"/>
	</g>
	<g>
		<polygon fill="#F1F1F2" points="471.761,34.852 493.99,22.017 491.822,20.763 471.763,32.347 451.701,20.763 449.533,22.017 		"/>
	</g>
	<g>
		<polygon fill="#F1F1F2" points="471.762,38.518 493.99,25.684 491.822,24.431 471.761,36.014 451.701,24.431 449.533,25.684 		"/>
	</g>
	<g>
		<polygon fill="#F1F1F2" points="377.409,110.881 399.638,98.046 397.47,96.795 377.409,108.377 357.349,96.795 355.18,98.046 		
			"/>
	</g>
	<g>
		<polygon fill="#F1F1F2" points="471.763,31.183 493.99,18.349 491.822,17.098 471.762,28.682 451.701,17.098 449.533,18.349 		"/>
	</g>
	<g>
		<polygon fill="#F1F1F2" points="357.349,187.491 355.18,188.745 377.409,201.579 399.638,188.745 397.47,187.491 377.411,199.075 
					"/>
	</g>
	<g>
		<polygon fill="#F1F1F2" points="471.762,96.212 493.99,83.378 471.762,70.545 449.533,83.378 		"/>
	</g>
	<g>
		<polygon fill="#F1F1F2" points="397.47,183.825 377.409,195.409 357.349,183.825 355.18,185.077 377.411,197.911 399.638,185.077 
					"/>
	</g>
	<g>
		<polygon fill="#F1F1F2" points="471.762,27.517 493.99,14.683 491.822,13.432 471.762,25.013 451.701,13.432 449.533,14.683 		"/>
	</g>
	<g>
		<polygon fill="#F1F1F2" points="424.585,34.852 446.814,22.018 444.646,20.763 424.586,32.348 404.525,20.763 402.356,22.018 		
			"/>
	</g>
	<g>
		<polygon fill="#F1F1F2" points="424.586,31.183 446.814,18.35 444.646,17.098 424.585,28.682 404.525,17.098 402.356,18.35 		"/>
	</g>
	<g>
		<polygon fill="#F1F1F2" points="424.585,27.518 446.814,14.683 444.646,13.432 424.585,25.013 404.525,13.432 402.356,14.683 		
			"/>
	</g>
	<g>
		<polygon fill="#F1F1F2" points="424.585,38.519 446.814,25.683 444.646,24.432 424.585,36.014 404.525,24.432 402.356,25.683 		
			"/>
	</g>
	<g>
		<polygon fill="#F1F1F2" points="471.762,23.851 493.99,11.016 491.822,9.763 471.763,21.347 451.701,9.763 449.533,11.016 		"/>
	</g>
	<g>
		<polygon fill="#F1F1F2" points="493.99,7.35 491.823,6.097 471.762,17.679 451.701,6.097 449.533,7.35 471.763,20.183 		"/>
	</g>
	<g>
		<polygon fill="#F1F1F2" points="400.792,76.533 423.021,63.699 420.853,62.445 400.793,74.029 380.731,62.445 378.563,63.699 		
			"/>
	</g>
	<g>
		<polygon fill="#F1F1F2" points="447.968,69.2 470.197,56.365 468.029,55.114 447.968,66.695 427.908,55.114 425.739,56.365 		"/>
	</g>
	<g>
		<polygon fill="#F1F1F2" points="400.793,72.865 423.021,60.031 420.853,58.779 400.792,70.363 380.731,58.779 378.563,60.031 		
			"/>
	</g>
	<g>
		<polygon fill="#F1F1F2" points="400.792,80.2 423.021,67.365 420.853,66.113 400.792,77.696 380.731,66.113 378.563,67.365 		"/>
	</g>
	<g>
		<polygon fill="#F1F1F2" points="397.47,180.159 377.409,191.741 357.349,180.159 355.18,181.411 377.409,194.245 399.638,181.411 
					"/>
	</g>
	<g>
		<polygon fill="#F1F1F2" points="400.792,69.199 423.021,56.365 420.853,55.113 400.792,66.695 380.731,55.113 378.563,56.365 		
			"/>
	</g>
	<g>
		<polygon fill="#F1F1F2" points="470.197,49.031 468.03,47.779 447.968,59.361 427.908,47.779 425.739,49.031 447.969,61.865 		"/>
	</g>
	<g>
		<polygon fill="#F1F1F2" points="447.968,65.534 470.197,52.697 468.029,51.445 447.969,63.03 427.908,51.445 425.739,52.697 		"/>
	</g>
	<g>
		<polygon fill="#F1F1F2" points="397.47,169.159 377.409,180.741 357.349,169.159 355.18,170.411 377.409,183.245 399.638,170.411 
					"/>
	</g>
	<g>
		<polygon fill="#F1F1F2" points="397.471,172.825 377.409,184.407 357.349,172.825 355.18,174.077 377.411,186.911 
			399.638,174.077 		"/>
	</g>
	<g>
		<polygon fill="#F1F1F2" points="397.47,176.491 377.411,188.075 357.349,176.491 355.18,177.743 377.409,190.579 399.638,177.743 
					"/>
	</g>
	<g>
		<polygon fill="#F1F1F2" points="423.021,49.031 420.854,47.779 400.792,59.361 380.731,47.779 378.563,49.031 400.793,61.865 		
			"/>
	</g>
	<g>
		<polygon fill="#F1F1F2" points="400.792,65.533 423.021,52.697 420.853,51.445 400.793,63.029 380.731,51.445 378.563,52.697 		
			"/>
	</g>
	<g>
		<polygon fill="#F1F1F2" points="377.409,153.909 355.18,166.743 377.409,179.577 399.638,166.743 		"/>
	</g>
	<g>
		<polygon fill="#F1F1F2" points="377.409,107.215 399.638,94.378 397.47,93.126 377.411,104.711 357.349,93.126 355.18,94.378 		
			"/>
	</g>
	<g>
		<polygon fill="#F1F1F2" points="491.823,89.46 471.762,101.042 451.701,89.46 449.533,90.712 471.763,103.547 493.99,90.712 		"/>
	</g>
	<g>
		<polygon fill="#F1F1F2" points="491.822,93.126 471.763,104.711 451.701,93.126 449.533,94.379 471.762,107.215 493.99,94.379 		
			"/>
	</g>
	<g>
		<polygon fill="#F1F1F2" points="491.822,96.794 471.762,108.377 451.701,96.794 449.533,98.046 471.762,110.881 493.99,98.046 		
			"/>
	</g>
	<g>
		<polygon fill="#F1F1F2" points="447.968,55.695 427.908,44.114 425.739,45.365 447.968,58.199 470.197,45.365 468.029,44.114 		
			"/>
	</g>
	<g>
		<polygon fill="#F1F1F2" points="424.585,96.213 446.814,83.379 424.585,70.545 402.356,83.379 		"/>
	</g>
	<g>
		<polygon fill="#F1F1F2" points="491.822,100.461 471.762,112.045 451.701,100.461 449.533,101.712 471.763,114.547 
			493.99,101.712 		"/>
	</g>
	<g>
		<polygon fill="#F1F1F2" points="491.822,85.794 471.762,97.377 451.701,85.794 449.533,87.046 471.762,99.881 493.99,87.046 		"/>
	</g>
	<g>
		<polygon fill="#F1F1F2" points="518.938,153.908 496.708,166.743 518.938,179.577 541.167,166.743 		"/>
	</g>
	<g>
		<polygon fill="#F1F1F2" points="538.999,169.159 518.938,180.741 498.877,169.159 496.708,170.41 518.938,183.245 541.167,170.41 
					"/>
	</g>
	<g>
		<polygon fill="#F1F1F2" points="538.999,172.825 518.938,184.407 498.877,172.825 496.708,174.076 518.939,186.911 
			541.167,174.076 		"/>
	</g>
	<g>
		<polygon fill="#F1F1F2" points="491.822,107.795 471.761,119.377 451.701,107.795 449.533,109.047 471.762,121.881 
			493.99,109.047 		"/>
	</g>
	<g>
		<polygon fill="#F1F1F2" points="491.822,104.127 471.763,115.711 451.701,104.127 449.533,105.381 471.761,118.215 
			493.99,105.381 		"/>
	</g>
	<g>
		<polygon fill="#F1F1F2" points="495.145,139.058 475.084,127.476 472.915,128.728 495.145,141.562 517.373,128.728 
			515.206,127.476 		"/>
	</g>
	<g>
		<polygon fill="#F1F1F2" points="353.616,69.199 375.844,56.365 373.676,55.113 353.616,66.695 333.555,55.113 331.386,56.365 		
			"/>
	</g>
	<g>
		<polygon fill="#F1F1F2" points="353.616,137.893 375.844,125.06 353.616,112.228 331.386,125.06 		"/>
	</g>
	<g>
		<polygon fill="#F1F1F2" points="353.616,80.2 375.844,67.365 373.676,66.113 353.615,77.696 333.555,66.113 331.386,67.365 		"/>
	</g>
	<g>
		<polygon fill="#F1F1F2" points="353.616,141.561 375.844,128.728 373.676,127.475 353.616,139.058 333.555,127.475 
			331.386,128.728 		"/>
	</g>
	<g>
		<polygon fill="#F1F1F2" points="353.615,76.533 375.844,63.699 373.676,62.445 353.617,74.029 333.555,62.445 331.386,63.699 		
			"/>
	</g>
	<g>
		<polygon fill="#F1F1F2" points="353.617,145.228 375.844,132.394 373.677,131.142 353.616,142.724 333.555,131.142 
			331.386,132.394 		"/>
	</g>
	<g>
		<polygon fill="#F1F1F2" points="353.616,148.896 375.844,136.059 373.676,134.808 353.617,146.393 333.555,134.808 
			331.386,136.059 		"/>
	</g>
	<g>
		<polygon fill="#F1F1F2" points="375.844,45.365 373.676,44.113 353.616,55.695 333.555,44.113 331.386,45.365 353.616,58.199 		
			"/>
	</g>
	<g>
		<polygon fill="#F1F1F2" points="353.617,61.865 375.844,49.031 373.677,47.779 353.616,59.361 333.555,47.779 331.386,49.031 		
			"/>
	</g>
	<g>
		<polygon fill="#F1F1F2" points="377.409,96.212 399.638,83.378 377.409,70.545 355.18,83.378 		"/>
	</g>
	<g>
		<polygon fill="#F1F1F2" points="400.792,55.695 380.731,44.113 378.563,45.365 400.792,58.199 423.021,45.365 420.853,44.113 		
			"/>
	</g>
	<g>
		<polygon fill="#F1F1F2" points="353.617,72.865 375.844,60.031 373.676,58.779 353.616,70.363 333.555,58.779 331.386,60.031 		
			"/>
	</g>
	<g>
		<polygon fill="#F1F1F2" points="538.999,176.491 518.939,188.075 498.877,176.491 496.708,177.742 518.938,190.579 
			541.167,177.742 		"/>
	</g>
	<g>
		<polygon fill="#F1F1F2" points="353.616,65.533 375.844,52.697 373.676,51.445 353.617,63.029 333.555,51.445 331.386,52.697 		
			"/>
	</g>
	<g>
		<polygon fill="#F1F1F2" points="495.144,159.896 517.373,147.062 515.206,145.809 495.145,157.393 475.084,145.809 
			472.915,147.062 		"/>
	</g>
	<g>
		<polygon fill="#F1F1F2" points="444.646,169.159 424.585,180.741 404.525,169.159 402.356,170.411 424.585,183.245 
			446.814,170.411 		"/>
	</g>
	<g>
		<polygon fill="#F1F1F2" points="424.585,153.909 402.356,166.743 424.585,179.578 446.814,166.743 		"/>
	</g>
	<g>
		<polygon fill="#F1F1F2" points="451.701,187.491 449.533,188.745 471.761,201.579 493.99,188.745 491.822,187.491 
			471.763,199.075 		"/>
	</g>
	<g>
		<polygon fill="#F1F1F2" points="491.822,183.825 471.762,195.409 451.701,183.825 449.533,185.077 471.763,197.911 
			493.99,185.077 		"/>
	</g>
	<g>
		<polygon fill="#F1F1F2" points="470.197,150.729 468.029,149.477 447.968,161.059 427.908,149.477 425.739,150.729 
			447.968,163.562 		"/>
	</g>
	<g>
		<polygon fill="#F1F1F2" points="444.646,176.491 424.586,188.075 404.525,176.491 402.356,177.743 424.585,190.579 
			446.814,177.743 		"/>
	</g>
	<g>
		<polygon fill="#F1F1F2" points="444.647,172.825 424.585,184.408 404.525,172.825 402.356,174.078 424.586,186.911 
			446.814,174.078 		"/>
	</g>
	<g>
		<polygon fill="#F1F1F2" points="423.021,150.729 420.853,149.477 400.792,161.059 380.731,149.477 378.563,150.729 
			400.792,163.562 		"/>
	</g>
	<g>
		<polygon fill="#F1F1F2" points="377.409,121.881 399.638,109.047 397.47,107.795 377.409,119.377 357.349,107.795 355.18,109.047 
					"/>
	</g>
	<g>
		<polygon fill="#F1F1F2" points="444.646,180.159 424.585,191.741 404.525,180.159 402.356,181.411 424.585,194.245 
			446.814,181.411 		"/>
	</g>
	<g>
		<polygon fill="#F1F1F2" points="377.409,118.215 399.638,105.381 397.47,104.127 377.411,115.711 357.349,104.127 355.18,105.381 
					"/>
	</g>
	<g>
		<polygon fill="#F1F1F2" points="404.525,187.491 402.356,188.745 424.585,201.579 446.814,188.745 444.646,187.491 
			424.586,199.075 		"/>
	</g>
	<g>
		<polygon fill="#F1F1F2" points="444.646,183.825 424.585,195.409 404.525,183.825 402.356,185.078 424.586,197.911 
			446.814,185.078 		"/>
	</g>
	<g>
		<polygon fill="#F1F1F2" points="538.999,180.159 518.938,191.741 498.877,180.159 496.708,181.41 518.938,194.245 541.167,181.41 
					"/>
	</g>
	<g>
		<polygon fill="#F1F1F2" points="517.373,132.394 515.207,131.142 495.145,142.724 475.084,131.142 472.915,132.394 
			495.145,145.228 		"/>
	</g>
	<g>
		<polygon fill="#F1F1F2" points="495.145,156.229 517.373,143.394 515.206,142.142 495.145,153.727 475.084,142.142 
			472.915,143.394 		"/>
	</g>
	<g>
		<polygon fill="#F1F1F2" points="495.145,152.562 517.373,139.728 515.206,138.476 495.145,150.059 475.084,138.476 
			472.915,139.728 		"/>
	</g>
	<g>
		<polygon fill="#F1F1F2" points="377.411,114.547 399.638,101.712 397.47,100.46 377.409,112.045 357.349,100.46 355.18,101.712 		
			"/>
	</g>
	<g>
		<polygon fill="#F1F1F2" points="538.999,183.825 518.938,195.408 498.877,183.825 496.708,185.076 518.939,197.911 
			541.167,185.076 		"/>
	</g>
	<g>
		<polygon fill="#F1F1F2" points="498.877,187.491 496.708,188.745 518.937,201.578 541.167,188.745 538.999,187.491 
			518.939,199.074 		"/>
	</g>
	<g>
		<polygon fill="#F1F1F2" points="517.373,150.729 515.206,149.477 495.144,161.059 475.084,149.477 472.915,150.729 
			495.145,163.562 		"/>
	</g>
	<g>
		<polygon fill="#F1F1F2" points="491.823,172.825 471.762,184.407 451.701,172.825 449.533,174.077 471.763,186.911 
			493.99,174.077 		"/>
	</g>
	<g>
		<polygon fill="#F1F1F2" points="491.822,169.159 471.762,180.741 451.701,169.159 449.533,170.411 471.762,183.245 
			493.99,170.411 		"/>
	</g>
	<g>
		<polygon fill="#F1F1F2" points="495.145,148.896 517.373,136.06 515.206,134.808 495.145,146.393 475.084,134.808 472.915,136.06 
					"/>
	</g>
	<g>
		<polygon fill="#F1F1F2" points="491.822,176.491 471.763,188.075 451.701,176.491 449.533,177.743 471.762,190.579 
			493.99,177.743 		"/>
	</g>
	<g>
		<polygon fill="#F1F1F2" points="471.762,153.909 449.533,166.743 471.762,179.577 493.99,166.743 		"/>
	</g>
	<g>
		<polygon fill="#F1F1F2" points="491.822,180.159 471.762,191.741 451.701,180.159 449.533,181.411 471.762,194.245 
			493.99,181.411 		"/>
	</g>
</g>
</svg>
